# xmcd
#
# Track frame offsets:
#	183
#	18538
#	36255
#	53568
#	73193
#	100283
#	117820
#	137610
#	156698
#	177480
#
# Disc length: 2619 seconds
#
# Revision: 1
# Processed by: cddbd v1.4PL0 Copyright (c) Steve Scherf et al.
# Submitted via: audiograbber 1.81.02
#
DISCID=8e0a390a
DTITLE=이승철 - The Best of Song
DYEAR=1998
DGENRE=Ballad
TTITLE0=Ballerina Girl I
TTITLE1=안녕이라고 말하지마
TTITLE2=외면
TTITLE3=회상 I
TTITLE4=떠나야 할 땐
TTITLE5=Ballerina Girl II
TTITLE6=그대가 나에게
TTITLE7=실수투성이
TTITLE8=소녀시대
TTITLE9=마지막 콘서트 (음악)
EXTD=
EXTT0=
EXTT1=
EXTT2=
EXTT3=
EXTT4=
EXTT5=
EXTT6=
EXTT7=
EXTT8=
EXTT9=
PLAYORDER=
